<?xml version="1.0" encoding="UTF-8" standalone="no"?>
<svg
   viewBox="0 0 200 200.00001"
   version="1.1"
   xml:space="preserve"
   x="0px"
   y="0px"
   fill-rule="evenodd"
   clip-rule="evenodd"
   stroke-linejoin="round"
   stroke-miterlimit="2"
   id="svg2"
   width="200"
   height="200"
   xmlns="http://www.w3.org/2000/svg"
   xmlns:svg="http://www.w3.org/2000/svg"
   xmlns:serif="http://www.serif.com/"><defs
     id="defs2" /><rect
     serif:id="plc board industrial industry factory"
     x="0"
     y="0.95200002"
     width="64"
     height="64"
     fill="none"
     id="rect1" /><g
     id="g4"
     transform="matrix(3.4482759,0,0,3.4482759,-9.8434547,-13.245054)"><path
       d="m 5,15.952 v -11 C 5.017,4.803 5.035,4.652 5.099,4.518 5.197,4.314 5.365,4.147 5.566,4.051 5.747,3.964 5.804,3.974 6,3.952 h 52 c 0.074,0.008 0.148,0.016 0.223,0.025 0.141,0.049 0.284,0.1 0.4,0.193 0.177,0.141 0.302,0.342 0.352,0.559 0.017,0.073 0.017,0.149 0.025,0.223 v 11 h 1 c 0.074,0.008 0.148,0.016 0.223,0.025 0.07,0.024 0.144,0.041 0.211,0.074 0.272,0.131 0.475,0.388 0.541,0.678 0.017,0.073 0.017,0.149 0.025,0.223 v 32 c -0.008,0.074 -0.008,0.15 -0.025,0.222 -0.067,0.294 -0.273,0.55 -0.541,0.679 C 60.253,49.94 60.196,49.93 60,49.952 h -1 v 11 c -0.017,0.149 -0.035,0.3 -0.099,0.434 -0.098,0.203 -0.266,0.37 -0.467,0.467 C 58.253,61.94 58.196,61.93 58,61.952 H 6 C 5.851,61.935 5.7,61.917 5.566,61.853 5.363,61.755 5.196,61.586 5.099,61.386 5.012,61.204 5.022,61.148 5,60.952 v -11 H 4 C 3.804,49.93 3.747,49.94 3.566,49.853 3.299,49.724 3.092,49.467 3.025,49.174 3.008,49.102 3.008,49.026 3,48.952 v -32 C 3.025,16.727 3.08,16.501 3.218,16.328 3.312,16.211 3.431,16.116 3.566,16.051 3.747,15.964 3.804,15.974 4,15.952 Z m 52,34 h -4 v 2.181 c 0.733,0.268 1.364,0.814 1.703,1.518 0.39,0.808 0.39,1.793 0,2.602 -0.649,1.347 -2.384,2.081 -3.854,1.469 -0.957,-0.398 -1.676,-1.322 -1.82,-2.352 -0.132,-0.941 0.214,-1.934 0.901,-2.589 0.306,-0.292 0.672,-0.514 1.07,-0.655 v -2.174 h -6 v 2.181 c 0.721,0.263 1.345,0.796 1.687,1.485 0.405,0.815 0.412,1.814 0.016,2.635 -0.649,1.347 -2.384,2.081 -3.854,1.47 -0.957,-0.399 -1.676,-1.323 -1.82,-2.353 -0.132,-0.94 0.214,-1.934 0.901,-2.589 0.306,-0.292 0.672,-0.514 1.07,-0.655 v -2.174 h -6 v 2.181 c 0.721,0.263 1.345,0.796 1.687,1.485 0.405,0.815 0.412,1.814 0.016,2.635 -0.649,1.347 -2.384,2.081 -3.854,1.47 -0.957,-0.399 -1.676,-1.323 -1.82,-2.353 -0.132,-0.94 0.214,-1.934 0.901,-2.589 0.306,-0.292 0.672,-0.514 1.07,-0.655 v -2.174 h -6 v 2.181 c 0.721,0.263 1.345,0.796 1.687,1.485 0.405,0.815 0.412,1.814 0.016,2.635 -0.649,1.347 -2.384,2.081 -3.854,1.47 -0.957,-0.399 -1.676,-1.323 -1.82,-2.353 -0.132,-0.94 0.214,-1.934 0.901,-2.589 0.306,-0.292 0.672,-0.514 1.07,-0.655 v -2.174 h -6 v 2.181 c 0.711,0.259 1.326,0.78 1.671,1.453 0.42,0.819 0.433,1.837 0.032,2.667 -0.649,1.347 -2.384,2.081 -3.854,1.469 -0.964,-0.401 -1.684,-1.336 -1.822,-2.371 -0.124,-0.926 0.215,-1.906 0.89,-2.558 0.308,-0.297 0.68,-0.523 1.083,-0.666 v -2.175 h -6 v 2.181 c 0.711,0.259 1.326,0.78 1.671,1.453 0.42,0.819 0.433,1.837 0.032,2.667 -0.649,1.347 -2.384,2.081 -3.854,1.47 C 9.892,57.324 9.173,56.4 9.029,55.37 8.898,54.436 9.238,53.449 9.917,52.793 10.225,52.496 10.597,52.27 11,52.127 V 49.952 H 7 v 10 h 50 z m -37.007,4 c -0.66,0.006 -1.2,0.79 -0.897,1.427 0.216,0.455 0.81,0.692 1.281,0.499 0.52,-0.212 0.779,-0.907 0.497,-1.412 -0.17,-0.304 -0.501,-0.506 -0.854,-0.514 z m 16,0 c -0.659,0.006 -1.2,0.79 -0.897,1.427 0.216,0.455 0.81,0.692 1.281,0.499 0.52,-0.212 0.779,-0.907 0.497,-1.412 -0.17,-0.304 -0.501,-0.506 -0.854,-0.514 z m 8,0 c -0.659,0.006 -1.2,0.79 -0.897,1.427 0.216,0.455 0.81,0.692 1.281,0.499 0.52,-0.212 0.779,-0.907 0.497,-1.412 -0.17,-0.304 -0.501,-0.506 -0.854,-0.514 z m -16,0 c -0.659,0.006 -1.2,0.79 -0.897,1.427 0.216,0.455 0.81,0.692 1.281,0.499 0.52,-0.212 0.779,-0.907 0.497,-1.412 -0.17,-0.304 -0.501,-0.506 -0.854,-0.514 z m -16,0 c -0.66,0.006 -1.2,0.79 -0.897,1.427 0.216,0.455 0.81,0.692 1.281,0.499 0.52,-0.212 0.779,-0.907 0.497,-1.412 -0.17,-0.304 -0.501,-0.506 -0.854,-0.514 z m 40,0 c -0.66,0.006 -1.2,0.79 -0.897,1.427 0.216,0.455 0.81,0.692 1.281,0.499 0.517,-0.211 0.779,-0.901 0.5,-1.407 C 52.708,54.165 52.376,53.96 52.02,53.952 Z M 59,17.952 H 5 v 30 h 54 z m -2,-2 v -10 H 7 v 10 h 4 V 13.78 C 10.949,13.763 10.899,13.743 10.849,13.722 9.89,13.324 9.173,12.396 9.029,11.37 8.899,10.441 9.234,9.46 9.904,8.805 10.453,8.27 11.209,7.959 11.981,7.952 h 0.038 c 1.097,0.01 2.155,0.664 2.652,1.634 0.42,0.819 0.433,1.837 0.032,2.667 -0.337,0.7 -0.968,1.235 -1.703,1.501 v 2.198 h 6 V 13.78 c -0.051,-0.017 -0.101,-0.037 -0.151,-0.058 -0.964,-0.401 -1.684,-1.336 -1.822,-2.371 -0.124,-0.926 0.215,-1.906 0.89,-2.558 0.548,-0.528 1.292,-0.834 2.064,-0.841 h 0.038 c 1.097,0.01 2.155,0.664 2.652,1.634 0.42,0.819 0.433,1.837 0.032,2.667 -0.337,0.7 -0.968,1.235 -1.703,1.501 v 2.198 h 6 V 13.78 C 26.949,13.763 26.899,13.743 26.849,13.722 25.892,13.324 25.173,12.4 25.029,11.37 24.899,10.441 25.234,9.46 25.905,8.805 26.453,8.27 27.209,7.959 27.981,7.952 h 0.038 c 1.109,0.01 2.177,0.679 2.668,1.666 0.405,0.815 0.412,1.814 0.016,2.635 -0.337,0.7 -0.968,1.235 -1.703,1.501 v 2.198 h 6 V 13.78 C 34.949,13.763 34.899,13.743 34.849,13.722 33.892,13.324 33.173,12.4 33.029,11.37 32.899,10.441 33.234,9.46 33.905,8.805 34.453,8.27 35.209,7.959 35.981,7.952 h 0.038 c 1.109,0.01 2.177,0.679 2.668,1.666 0.405,0.815 0.412,1.814 0.016,2.635 -0.337,0.7 -0.968,1.235 -1.703,1.501 v 2.198 h 6 V 13.78 C 42.949,13.763 42.899,13.743 42.849,13.722 41.892,13.324 41.173,12.4 41.029,11.37 40.899,10.441 41.234,9.46 41.905,8.805 42.453,8.27 43.209,7.959 43.981,7.952 h 0.038 c 1.109,0.01 2.177,0.679 2.668,1.666 0.405,0.815 0.412,1.814 0.016,2.635 -0.337,0.7 -0.968,1.235 -1.703,1.501 v 2.198 h 6 V 13.78 C 50.949,13.763 50.899,13.743 50.849,13.722 49.953,13.35 49.265,12.52 49.065,11.574 48.862,10.614 49.166,9.561 49.854,8.856 50.406,8.291 51.181,7.959 51.981,7.952 h 0.038 c 1.112,0.01 2.199,0.691 2.684,1.699 0.39,0.808 0.39,1.793 0,2.602 -0.337,0.7 -0.968,1.235 -1.703,1.501 v 2.198 z m -37.007,-6 c -0.659,0.006 -1.2,0.79 -0.897,1.427 0.216,0.455 0.81,0.692 1.281,0.499 0.519,-0.212 0.78,-0.906 0.497,-1.412 -0.17,-0.304 -0.5,-0.506 -0.854,-0.514 z m 8,0 c -0.657,0.006 -1.202,0.786 -0.897,1.427 0.216,0.455 0.81,0.692 1.281,0.499 0.519,-0.212 0.779,-0.907 0.497,-1.412 -0.17,-0.304 -0.5,-0.506 -0.854,-0.514 z m 8,0 c -0.657,0.006 -1.202,0.786 -0.897,1.427 0.216,0.455 0.81,0.692 1.281,0.499 0.519,-0.212 0.779,-0.907 0.497,-1.412 -0.17,-0.304 -0.5,-0.506 -0.854,-0.514 z m 8,0 c -0.657,0.006 -1.202,0.786 -0.897,1.427 0.216,0.455 0.81,0.692 1.281,0.499 0.519,-0.212 0.779,-0.907 0.497,-1.412 -0.17,-0.304 -0.5,-0.506 -0.854,-0.514 z m -32,0 c -0.658,0.006 -1.202,0.786 -0.897,1.427 0.216,0.455 0.81,0.692 1.281,0.499 0.519,-0.212 0.78,-0.906 0.497,-1.412 -0.17,-0.304 -0.5,-0.506 -0.854,-0.514 z m 40,0 c -0.658,0.006 -1.202,0.786 -0.897,1.427 0.216,0.455 0.81,0.692 1.281,0.499 0.519,-0.212 0.78,-0.907 0.497,-1.412 -0.17,-0.304 -0.5,-0.506 -0.854,-0.514 z"
       fill-rule="nonzero"
       id="path1" /><text
       xml:space="preserve"
       style="font-size:16px;font-family:sans-serif;-inkscape-font-specification:sans-serif;text-align:center;word-spacing:0.93px;writing-mode:lr-tb;direction:ltr;text-anchor:middle;opacity:1;fill:#000000;fill-opacity:1"
       x="31.991354"
       y="30.251234"
       id="text2"><tspan
         x="31.991354"
         y="30.251234"
         style="font-style:normal;font-variant:normal;font-weight:normal;font-stretch:normal;font-size:16px;font-family:TechnicalForest-Bold;-inkscape-font-specification:TechnicalForest-Bold;fill:#000000;fill-opacity:1"
         id="tspan3">ESP32</tspan></text><text
       xml:space="preserve"
       style="font-style:normal;font-variant:normal;font-weight:normal;font-stretch:normal;font-size:18.6667px;font-family:TechnicalForest-Bold;-inkscape-font-specification:TechnicalForest-Bold;text-align:center;word-spacing:0.93px;writing-mode:lr-tb;direction:ltr;text-anchor:middle;opacity:1;fill:#000000;fill-opacity:1"
       x="31.99135"
       y="44.932045"
       id="text4"><tspan
         id="tspan4"
         x="31.99135"
         y="44.932045"
         style="font-size:18.6667px">PLC</tspan></text></g></svg>
